<svg xmlns="http://www.w3.org/2000/svg" viewBox="0 0 32 32" width="256" height="256"><path fill="#eb202e" d="M23,4.88c4.19,2.42,7,6.94,7,12.12,0,7.73-6.27,14-14,14S2,24.73,2,17c0-5.18,2.81-9.7,7-12.12v6.48c-1.25,1.54-2,3.51-2,5.64,0,4.97,4.03,9,9,9s9-4.03,9-9c0-2.13-.75-4.1-2-5.64V4.88Z" class="colord82e42 svgShape"></path><path fill="#eb202e" d="M18.5,3.5v14c0,1.38-1.12,2.5-2.5,2.5s-2.5-1.12-2.5-2.5V3.5c0-1.38,1.12-2.5,2.5-2.5,.69,0,1.32,.28,1.77,.73s.73,1.08,.73,1.77Z" class="colord82e42 svgShape"></path></svg>
